<svg width="60" height="60" viewBox="0 0 60 60" fill="none" xmlns="http://www.w3.org/2000/svg">
<rect width="60" height="60" fill="white"/>
<path d="M8.21875 47L11.1563 38.5312H23.6562L26.5781 47H31.7031L20.1875 15H14.6094L3.09375 47H8.21875ZM12.5625 34.4687L17.2813 20.8125H17.5313L22.25 34.4687H12.5625ZM40.7336 47.5313C44.7023 47.5313 46.9367 45.5156 47.8273 43.7187H48.0148V47H52.5773V31.0625C52.5773 24.0781 47.0773 22.6875 43.2648 22.6875C38.9211 22.6875 34.9211 24.4375 33.3586 28.8125L37.7492 29.8125C38.4367 28.1094 40.1867 26.4687 43.3273 26.4687C46.343 26.4687 47.8898 28.0469 47.8898 30.7656V30.875C47.8898 32.5781 46.1398 32.5469 41.8273 33.0469C37.2805 33.5781 32.6242 34.7656 32.6242 40.2187C32.6242 44.9375 36.1711 47.5313 40.7336 47.5313ZM41.7492 43.7812C39.1086 43.7812 37.2023 42.5937 37.2023 40.2812C37.2023 37.7812 39.4211 36.8906 42.1242 36.5312C43.6398 36.3281 47.2336 35.9219 47.9055 35.25V38.3438C47.9055 41.1875 45.6398 43.7812 41.7492 43.7812Z" fill="black"/>
</svg>
