<svg width="60" height="60" viewBox="0 0 60 60" fill="none" xmlns="http://www.w3.org/2000/svg">
<rect width="60" height="60" fill="white"/>
<path d="M12.0881 48L14.4915 41.071H24.7188L27.1094 48H31.3026L21.8807 21.8182H17.3168L7.89489 48H12.0881ZM15.642 37.7472L19.5028 26.5739H19.7074L23.5682 37.7472H15.642ZM38.6911 48.4347C41.9383 48.4347 43.7664 46.7855 44.4951 45.3153H44.6485V48H48.3815V34.9602C48.3815 29.2457 43.8815 28.108 40.7621 28.108C37.2082 28.108 33.9354 29.5398 32.657 33.1193L36.2494 33.9375C36.8119 32.544 38.2437 31.2017 40.8133 31.2017C43.2806 31.2017 44.5462 32.4929 44.5462 34.7173V34.8068C44.5462 36.2003 43.1144 36.1747 39.586 36.5838C35.8658 37.0185 32.0562 37.9901 32.0562 42.4517C32.0562 46.3125 34.9582 48.4347 38.6911 48.4347ZM39.5221 45.3665C37.3616 45.3665 35.8019 44.3949 35.8019 42.5028C35.8019 40.4574 37.6173 39.7287 39.8289 39.4347C41.069 39.2685 44.0093 38.9361 44.559 38.3864V40.9176C44.559 43.2443 42.7053 45.3665 39.5221 45.3665Z" fill="black"/>
</svg>
