<svg width="60" height="60" viewBox="0 0 60 60" fill="none" xmlns="http://www.w3.org/2000/svg">
<rect width="60" height="60" fill="white"/>
<path d="M14.9574 48L16.8267 42.6108H24.7812L26.6406 48H29.902L22.5739 27.6364H19.0241L11.696 48H14.9574ZM17.7216 40.0256L20.7244 31.3352H20.8835L23.8864 40.0256H17.7216ZM37.0487 48.3381C39.5742 48.3381 40.9961 47.0554 41.5629 45.9119H41.6822V48H44.5856V37.858C44.5856 33.4134 41.0856 32.5284 38.6594 32.5284C35.8952 32.5284 33.3498 33.642 32.3555 36.4261L35.1495 37.0625C35.587 35.9787 36.7006 34.9347 38.6992 34.9347C40.6183 34.9347 41.6026 35.9389 41.6026 37.669V37.7386C41.6026 38.8224 40.489 38.8026 37.7447 39.1207C34.8512 39.4588 31.8881 40.2145 31.8881 43.6847C31.8881 46.6875 34.1452 48.3381 37.0487 48.3381ZM37.695 45.9517C36.0146 45.9517 34.8015 45.196 34.8015 43.7244C34.8015 42.1335 36.2134 41.5668 37.9336 41.3381C38.8981 41.2088 41.185 40.9503 41.6126 40.5227V42.4915C41.6126 44.3011 40.1708 45.9517 37.695 45.9517Z" fill="black"/>
</svg>
